<svg width="86" height="86" viewBox="0 0 86 86" fill="none" xmlns="http://www.w3.org/2000/svg">
<g clip-path="url(#clip0_1_27)">
<rect width="86" height="86" fill="#D9D9D9"/>
<rect width="86" height="86" fill="url(#paint0_linear_1_27)"/>
<path d="M43 85.7C66.5826 85.7 85.7 66.5826 85.7 43C85.7 19.4174 66.5826 0.300003 43 0.300003C19.4174 0.300003 0.300003 19.4174 0.300003 43C0.300003 66.5826 19.4174 85.7 43 85.7Z" fill="url(#paint1_linear_1_27)"/>
<path d="M10.92 43.0004C10.9202 48.6305 12.4023 54.1614 15.2173 59.0373C18.0324 63.9131 22.0813 67.9621 26.957 70.7774C31.8332 73.5926 37.3645 75.0747 42.995 75.0747C48.6255 75.0747 54.1568 73.5926 59.033 70.7774C63.9091 67.9624 67.9584 63.9135 70.7738 59.0376C73.5892 54.1617 75.0716 48.6307 75.072 43.0004H52.041C52.0975 43.0488 52.1598 43.0936 52.2148 43.1429C54.0898 44.8269 55.0273 47.0064 55.0273 49.68C55.0273 52.3536 54.0117 54.5832 51.9804 56.3714C49.9665 58.1596 47.3283 59.1331 44.0644 59.2894L44.037 67.18H41.4335L41.4081 59.3402C39.6373 59.2534 37.8745 59.011 36.121 58.6117C34.3849 58.2124 32.6661 57.6575 30.9648 56.9457V52.2582C32.7009 53.3346 34.4457 54.1579 36.1992 54.7308C37.97 55.3037 39.7148 55.6082 41.4336 55.6429V43.7149C40.278 43.5358 39.227 43.2946 38.2617 43.0001L10.92 43.0004ZM44.037 44.2367V55.5397C45.9467 55.4876 47.4411 54.9567 48.5175 53.9499C49.5939 52.943 50.1308 51.5727 50.1308 49.8366C50.1308 48.222 49.646 46.972 48.6738 46.0866C47.7016 45.1838 46.155 44.5665 44.037 44.2367Z" fill="white" fill-opacity="0.7"/>
<path d="M30.72 13.3664C24.8588 15.7942 19.8491 19.9055 16.3246 25.1805C12.8 30.4555 10.9189 36.6572 10.919 43.0014H38.259C36.3243 42.411 34.7628 41.5944 33.593 40.5405C31.8395 38.9606 30.9641 36.8693 30.9641 34.2651C30.9641 31.5394 31.8756 29.368 33.6985 27.7534C35.5388 26.1215 38.1169 25.184 41.4329 24.9409V18.8218H44.0364L44.0618 24.9409C45.4333 25.0277 46.8235 25.2019 48.2298 25.4623C49.636 25.7228 51.0684 26.0793 52.5267 26.5307V31.0346C51.051 30.2881 49.6087 29.7152 48.2025 29.3158C46.8136 28.8992 45.4254 28.6568 44.0365 28.5873V39.8123C44.6677 39.9073 45.263 40.0254 45.8412 40.1561L65.6752 20.3201C61.1894 15.8344 55.4742 12.7796 49.2523 11.542C43.0304 10.3044 36.581 10.9388 30.72 13.3664ZM41.433 28.5344C39.6274 28.6038 38.2112 29.1246 37.1869 30.0969C36.1799 31.0691 35.6771 32.3712 35.6771 34.0031C35.6771 35.4962 36.1458 36.678 37.0833 37.5461C38.0382 38.4141 39.4885 38.9951 41.4329 39.2902L41.433 28.5344Z" fill="#999999" fill-opacity="0.7"/>
<path d="M65.68 20.3194L45.846 40.1554C48.4471 40.7433 50.5147 41.6908 52.0433 43.0011H75.0763C75.0762 38.7885 74.2463 34.6173 72.6341 30.7255C71.0218 26.8337 68.6589 23.2979 65.68 20.3194Z" fill="#CCCCCC" fill-opacity="0.7"/>
</g>
<defs>
<linearGradient id="paint0_linear_1_27" x1="12.5939" y1="12.5949" x2="73.4061" y2="73.4061" gradientUnits="userSpaceOnUse">
<stop offset="0.0054" stop-color="#483737"/>
<stop offset="1" stop-color="#6C5353"/>
</linearGradient>
<linearGradient id="paint1_linear_1_27" x1="12.806" y1="12.807" x2="73.194" y2="73.194" gradientUnits="userSpaceOnUse">
<stop offset="0.0054" stop-color="#483737"/>
<stop offset="1" stop-color="#6C5353"/>
</linearGradient>
<clipPath id="clip0_1_27">
<rect width="86" height="86" fill="white"/>
</clipPath>
</defs>
</svg>
